<svg xmlns="http://www.w3.org/2000/svg" xmlns:xlink="http://www.w3.org/1999/xlink" version="1.1" x="0px" y="0px" viewBox="0 0 100 125" enable-background="new 0 0 100 100" xml:space="preserve"><g display="none"><rect x="-966" y="-975" display="inline" fill="#000000" width="1186" height="1228"/></g><g><polygon points="87.638,50.466 75.293,50.466 75.293,33.914 64.949,33.914 64.949,17.5 42.328,17.5 42.328,50.189 39.121,50.189    39.121,43.982 22.707,43.982 22.707,64.604 12.362,64.604 12.362,78.5 6.086,78.5 6.086,82.5 16.362,82.5 16.362,68.604    26.707,68.604 26.707,47.982 35.121,47.982 35.121,54.189 46.328,54.189 46.328,21.5 60.949,21.5 60.949,37.914 71.293,37.914    71.293,54.466 83.638,54.466 83.638,82.5 93.914,82.5 93.914,78.5 87.638,78.5  "/></g><text x="0" y="115" fill="#000000" font-size="5px" font-weight="bold" font-family="'Helvetica Neue', Helvetica, Arial-Unicode, Arial, Sans-serif">Created by Oksana Latysheva</text><text x="0" y="120" fill="#000000" font-size="5px" font-weight="bold" font-family="'Helvetica Neue', Helvetica, Arial-Unicode, Arial, Sans-serif">from the Noun Project</text></svg>